<svg width="7704" height="1084" viewBox="0 0 7704 1084" fill="none" xmlns="http://www.w3.org/2000/svg">
<g filter="url(#filter0_b_755_9)">
<path d="M3712.25 965.438C3662.97 965.438 3620.87 961.214 3585.95 952.766C3551.03 944.319 3533.56 933.994 3533.54 921.792C3533.54 911.333 3546.27 902.014 3571.72 893.834C3597.17 885.655 3630.48 880.425 3671.63 878.146C3685.17 865.81 3712.25 855.82 3752.87 848.177C3793.48 840.534 3839.51 836.713 3890.96 836.713C3954.32 836.713 4008.07 842.178 4052.22 853.109C4096.37 864.04 4118.43 877.347 4118.41 893.03C4155.78 894.102 4186.78 898.093 4211.44 905.001C4236.09 911.909 4248.4 919.987 4248.38 929.234C4248.38 939.29 4234.17 947.84 4205.75 954.882C4177.33 961.924 4142.8 965.443 4102.16 965.438H3712.25Z" fill="#0A0D21" fill-opacity="0.43"/>
<path d="M4881.91 494.575C4843.61 494.575 4810.88 491.24 4783.74 484.571C4756.6 477.902 4743.02 469.751 4743.01 460.118C4743.01 451.861 4752.9 444.504 4772.68 438.046C4792.47 431.589 4818.35 427.46 4850.34 425.661C4860.86 415.921 4881.91 408.035 4913.48 402.001C4945.05 395.967 4980.83 392.95 5020.81 392.95C5070.06 392.95 5111.84 397.265 5146.15 405.894C5180.47 414.524 5197.61 425.03 5197.6 437.411C5226.64 438.258 5250.74 441.408 5269.9 446.862C5289.06 452.316 5298.63 458.693 5298.62 465.993C5298.62 473.932 5287.57 480.682 5265.48 486.242C5243.39 491.801 5216.56 494.579 5184.97 494.575H4881.91Z" fill="#0A0D21" fill-opacity="0.43"/>
<path d="M4007.84 331.975C3969.54 331.975 3936.82 328.64 3909.68 321.971C3882.53 315.302 3868.96 307.151 3868.94 297.518C3868.94 289.261 3878.83 281.904 3898.61 275.446C3918.4 268.989 3944.28 264.86 3976.27 263.061C3986.8 253.321 4007.84 245.435 4039.41 239.401C4070.98 233.367 4106.76 230.35 4146.74 230.35C4195.99 230.35 4237.77 234.665 4272.08 243.294C4306.4 251.924 4323.55 262.43 4323.53 274.811C4352.57 275.658 4376.67 278.808 4395.83 284.262C4414.99 289.716 4424.57 296.093 4424.55 303.393C4424.55 311.332 4413.5 318.082 4391.41 323.642C4369.32 329.201 4342.49 331.979 4310.9 331.975H4007.84Z" fill="#0A0D21" fill-opacity="0.43"/>
<path d="M4221.28 101.625C4182.97 101.625 4150.25 98.2904 4123.11 91.6213C4095.97 84.9521 4082.39 76.801 4082.37 67.1678C4082.37 58.9107 4092.27 51.5535 4112.05 45.0961C4131.83 38.6387 4157.72 34.5102 4189.71 32.7105C4200.23 22.9715 4221.28 15.085 4252.85 9.05098C4284.41 3.01699 4320.19 0 4360.18 0C4409.43 0 4451.21 4.31483 4485.52 12.9445C4519.83 21.5741 4536.98 32.0796 4536.96 44.4609C4566.01 45.3078 4590.11 48.4582 4609.27 53.9121C4628.43 59.3659 4638 65.7429 4637.98 73.043C4637.98 80.9824 4626.94 87.732 4604.85 93.2917C4582.76 98.8515 4555.92 101.629 4524.34 101.625H4221.28Z" fill="#0A0D21" fill-opacity="0.43"/>
<path d="M5447.68 101.625C5409.38 101.625 5376.66 98.2904 5349.52 91.6213C5322.38 84.9521 5308.8 76.801 5308.78 67.1678C5308.78 58.9107 5318.67 51.5535 5338.46 45.0961C5358.24 38.6387 5384.12 34.5102 5416.11 32.7105C5426.64 22.9715 5447.68 15.085 5479.25 9.05098C5510.82 3.01699 5546.6 0 5586.59 0C5635.83 0 5677.61 4.31483 5711.93 12.9445C5746.24 21.5741 5763.39 32.0796 5763.37 44.4609C5792.41 45.3078 5816.52 48.4582 5835.68 53.9121C5854.84 59.3659 5864.41 65.7429 5864.39 73.043C5864.39 80.9824 5853.35 87.732 5831.26 93.2917C5809.17 98.8515 5782.33 101.629 5750.74 101.625H5447.68Z" fill="#0A0D21" fill-opacity="0.43"/>
<path d="M4417.77 1084C4379.47 1084 4346.75 1080.67 4319.61 1074C4292.47 1067.33 4278.89 1059.18 4278.87 1049.54C4278.87 1041.29 4288.76 1033.93 4308.54 1027.47C4328.33 1021.01 4354.21 1016.89 4386.2 1015.09C4396.73 1005.35 4417.77 997.46 4449.34 991.426C4480.91 985.392 4516.69 982.375 4556.68 982.375C4605.92 982.375 4647.7 986.69 4682.02 995.32C4716.33 1003.95 4733.48 1014.45 4733.46 1026.84C4762.5 1027.68 4786.6 1030.83 4805.77 1036.29C4824.93 1041.74 4834.5 1048.12 4834.48 1055.42C4834.48 1063.36 4823.44 1070.11 4801.35 1075.67C4779.26 1081.23 4752.42 1084 4720.83 1084H4417.77Z" fill="#0A0D21" fill-opacity="0.43"/>
<path d="M7117.9 1084C7079.6 1084 7046.87 1080.67 7019.73 1074C6992.59 1067.33 6979.01 1059.18 6979 1049.54C6979 1041.29 6988.89 1033.93 7008.67 1027.47C7028.45 1021.01 7054.34 1016.89 7086.33 1015.09C7096.85 1005.35 7117.9 997.46 7149.47 991.426C7181.04 985.392 7216.81 982.375 7256.8 982.375C7306.05 982.375 7347.83 986.69 7382.14 995.32C7416.46 1003.95 7433.6 1014.45 7433.59 1026.84C7462.63 1027.68 7486.73 1030.83 7505.89 1036.29C7525.05 1041.74 7534.62 1048.12 7534.61 1055.42C7534.61 1063.36 7523.56 1070.11 7501.47 1075.67C7479.38 1081.23 7452.54 1084 7420.96 1084H7117.9Z" fill="#0A0D21" fill-opacity="0.43"/>
<path d="M6816.38 860.425C6778.08 860.425 6745.35 857.09 6718.21 850.421C6691.07 843.752 6677.49 835.601 6677.48 825.968C6677.48 817.711 6687.37 810.354 6707.15 803.896C6726.93 797.439 6752.82 793.31 6784.81 791.511C6795.33 781.771 6816.38 773.885 6847.95 767.851C6879.52 761.817 6915.3 758.8 6955.28 758.8C7004.53 758.8 7046.31 763.115 7080.62 771.744C7114.94 780.374 7132.08 790.88 7132.07 803.261C7161.11 804.108 7185.21 807.258 7204.37 812.712C7223.53 818.166 7233.1 824.543 7233.09 831.843C7233.09 839.782 7222.04 846.532 7199.95 852.092C7177.86 857.651 7151.03 860.429 7119.44 860.425H6816.38Z" fill="#0A0D21" fill-opacity="0.43"/>
<path d="M3021.97 514.9C2983.67 514.9 2950.95 511.565 2923.81 504.896C2896.67 498.227 2883.09 490.076 2883.07 480.443C2883.07 472.186 2892.96 464.829 2912.75 458.371C2932.53 451.914 2958.42 447.785 2990.4 445.986C3000.93 436.246 3021.97 428.36 3053.54 422.326C3085.11 416.292 3120.89 413.275 3160.88 413.275C3210.12 413.275 3251.9 417.59 3286.22 426.219C3320.53 434.849 3337.68 445.355 3337.66 457.736C3366.7 458.583 3390.81 461.733 3409.97 467.187C3429.13 472.641 3438.7 479.018 3438.68 486.318C3438.68 494.257 3427.64 501.007 3405.55 506.567C3383.46 512.126 3356.62 514.904 3325.03 514.9H3021.97Z" fill="#0A0D21" fill-opacity="0.43"/>
<path d="M5050.46 965.438C5001.18 965.438 4959.08 961.214 4924.16 952.766C4889.24 944.319 4871.77 933.994 4871.75 921.792C4871.75 911.333 4884.47 902.014 4909.93 893.834C4935.38 885.655 4968.68 880.425 5009.84 878.146C5023.38 865.81 5050.46 855.82 5091.07 848.177C5131.69 840.534 5177.72 836.713 5229.17 836.713C5292.53 836.713 5346.28 842.178 5390.43 853.109C5434.57 864.04 5456.64 877.347 5456.61 893.03C5493.98 894.102 5524.99 898.093 5549.64 905.001C5574.29 911.909 5586.61 919.987 5586.59 929.234C5586.59 939.29 5572.38 947.84 5543.96 954.882C5515.53 961.924 5481.01 965.443 5440.37 965.438H5050.46Z" fill="#0A0D21" fill-opacity="0.43"/>
<path d="M3109.21 816.388C3059.93 816.388 3017.83 812.164 2982.91 803.716C2947.99 795.269 2930.52 784.944 2930.5 772.742C2930.5 762.283 2943.23 752.964 2968.68 744.784C2994.13 736.605 3027.44 731.375 3068.6 729.096C3082.13 716.76 3109.21 706.77 3149.83 699.127C3190.44 691.484 3236.47 687.663 3287.92 687.663C3351.28 687.663 3405.04 693.128 3449.18 704.059C3493.33 714.99 3515.39 728.297 3515.37 743.98C3552.74 745.052 3583.74 749.043 3608.4 755.951C3633.05 762.859 3645.36 770.937 3645.34 780.184C3645.34 790.24 3631.13 798.79 3602.71 805.832C3574.29 812.874 3539.76 816.393 3499.12 816.388H3109.21Z" fill="#0A0D21" fill-opacity="0.43"/>
<path d="M6425.93 308.263C6349.56 308.263 6284.31 301.705 6230.2 288.589C6176.08 275.473 6149 259.442 6148.97 240.497C6148.97 224.258 6168.69 209.789 6208.14 197.089C6247.58 184.389 6299.2 176.27 6362.98 172.731C6383.97 153.577 6425.93 138.067 6488.87 126.2C6551.82 114.333 6623.16 108.4 6702.89 108.4C6801.08 108.4 6884.39 116.886 6952.8 133.857C7021.22 150.829 7055.41 171.49 7055.38 195.84C7113.29 197.505 7161.34 203.701 7199.55 214.427C7237.75 225.153 7256.84 237.694 7256.8 252.051C7256.8 267.665 7234.78 280.94 7190.74 291.874C7146.69 302.808 7093.18 308.271 7030.2 308.263H6425.93Z" fill="#0A0D21" fill-opacity="0.43"/>
<path d="M3122.76 308.263C3046.39 308.263 2981.14 301.705 2927.03 288.589C2872.91 275.473 2845.84 259.442 2845.8 240.497C2845.8 224.258 2865.53 209.789 2904.97 197.089C2944.42 184.389 2996.03 176.27 3059.82 172.731C3080.8 153.577 3122.76 138.067 3185.71 126.2C3248.65 114.333 3319.99 108.4 3399.72 108.4C3497.91 108.4 3581.22 116.886 3649.64 133.857C3718.05 150.829 3752.25 171.49 3752.21 195.84C3810.12 197.505 3858.18 203.701 3896.38 214.427C3934.58 225.153 3953.67 237.694 3953.64 252.051C3953.64 267.665 3931.61 280.94 3887.57 291.874C3843.52 302.808 3790.01 308.271 3727.03 308.263H3122.76Z" fill="#0A0D21" fill-opacity="0.43"/>
<path d="M5412.96 660.563C5336.58 660.563 5271.34 654.005 5217.22 640.889C5163.11 627.773 5136.03 611.742 5136 592.797C5136 576.558 5155.72 562.089 5195.17 549.389C5234.61 536.689 5286.23 528.57 5350.01 525.031C5370.99 505.877 5412.96 490.367 5475.9 478.5C5538.85 466.633 5610.19 460.7 5689.92 460.7C5788.11 460.7 5871.41 469.186 5939.83 486.157C6008.25 503.129 6042.44 523.79 6042.41 548.14C6100.32 549.805 6148.37 556.001 6186.58 566.727C6224.78 577.453 6243.86 589.994 6243.83 604.351C6243.83 619.965 6221.81 633.24 6177.76 644.174C6133.72 655.108 6080.21 660.571 6017.23 660.563H5412.96Z" fill="#0A0D21" fill-opacity="0.43"/>
<path d="M6873.13 650.4C6796.75 650.4 6731.51 643.842 6677.39 630.726C6623.28 617.61 6596.2 601.579 6596.17 582.634C6596.17 566.395 6615.89 551.926 6655.34 539.226C6694.78 526.527 6746.4 518.408 6810.18 514.868C6831.16 495.715 6873.13 480.205 6936.07 468.338C6999.02 456.471 7070.35 450.538 7150.08 450.538C7248.28 450.538 7331.58 459.023 7400 475.995C7468.42 492.967 7502.61 513.627 7502.58 537.977C7560.49 539.643 7608.54 545.839 7646.75 556.565C7684.95 567.291 7704.03 579.832 7704 594.189C7704 609.803 7681.98 623.077 7637.93 634.011C7593.89 644.945 7540.38 650.408 7477.4 650.4H6873.13Z" fill="#0A0D21" fill-opacity="0.43"/>
<path d="M3962.95 657.175C3886.58 657.175 3821.33 650.617 3767.22 637.501C3713.1 624.385 3686.03 608.354 3685.99 589.409C3685.99 573.17 3705.72 558.701 3745.16 546.001C3784.61 533.302 3836.22 525.183 3900.01 521.643C3920.99 502.49 3962.95 486.98 4025.9 475.113C4088.84 463.246 4160.18 457.313 4239.91 457.313C4338.1 457.313 4421.41 465.798 4489.83 482.77C4558.24 499.742 4592.44 520.402 4592.4 544.752C4650.31 546.418 4698.37 552.614 4736.57 563.34C4774.77 574.066 4793.86 586.607 4793.83 600.964C4793.83 616.578 4771.8 629.852 4727.76 640.786C4683.71 651.72 4630.2 657.183 4567.22 657.175H3962.95Z" fill="#0A0D21" fill-opacity="0.43"/>
<path d="M4701.51 308.263C4625.13 308.263 4559.89 301.705 4505.77 288.589C4451.66 275.473 4424.58 259.442 4424.55 240.497C4424.55 224.258 4444.27 209.789 4483.72 197.089C4523.16 184.389 4574.78 176.27 4638.56 172.731C4659.54 153.577 4701.51 138.067 4764.45 126.2C4827.4 114.333 4898.73 108.4 4978.46 108.4C5076.66 108.4 5159.96 116.886 5228.38 133.857C5296.8 150.829 5330.99 171.49 5330.96 195.84C5388.87 197.505 5436.92 203.701 5475.13 214.427C5513.33 225.153 5532.41 237.694 5532.38 252.051C5532.38 267.665 5510.36 280.94 5466.31 291.874C5422.27 302.808 5368.76 308.271 5305.78 308.263H4701.51Z" fill="#0A0D21" fill-opacity="0.43"/>
<path d="M4562.6 826.55C4513.32 826.55 4471.22 822.326 4436.3 813.879C4401.39 805.431 4383.92 795.106 4383.89 782.904C4383.89 772.445 4396.62 763.126 4422.07 754.947C4447.53 746.767 4480.83 741.538 4521.99 739.258C4535.53 726.922 4562.6 716.933 4603.22 709.29C4643.84 701.647 4689.87 697.825 4741.31 697.825C4804.67 697.825 4858.43 703.29 4902.57 714.221C4946.72 725.152 4968.78 738.459 4968.76 754.142C5006.13 755.215 5037.14 759.205 5061.79 766.114C5086.44 773.022 5098.75 781.099 5098.73 790.346C5098.73 800.403 5084.52 808.952 5056.1 815.995C5027.68 823.037 4993.15 826.555 4952.52 826.55H4562.6Z" fill="#0A0D21" fill-opacity="0.43"/>
<path d="M5612.84 291.325C5563.56 291.325 5521.46 287.101 5486.54 278.654C5451.62 270.206 5434.15 259.881 5434.13 247.679C5434.13 237.22 5446.86 227.901 5472.31 219.722C5497.76 211.542 5531.07 206.313 5572.23 204.033C5585.76 191.697 5612.84 181.708 5653.46 174.065C5694.07 166.422 5740.1 162.6 5791.55 162.6C5854.91 162.6 5908.67 168.065 5952.81 178.996C5996.96 189.927 6019.02 203.234 6019 218.917C6056.37 219.99 6087.38 223.98 6112.03 230.889C6136.68 237.797 6148.99 245.874 6148.97 255.121C6148.97 265.178 6134.76 273.727 6106.34 280.77C6077.92 287.812 6043.39 291.33 6002.75 291.325H5612.84Z" fill="#0A0D21" fill-opacity="0.43"/>
<path d="M3742.74 128.725C3693.46 128.725 3651.36 124.501 3616.44 116.054C3581.52 107.606 3564.05 97.2812 3564.03 85.0792C3564.03 74.6203 3576.76 65.3011 3602.21 57.1217C3627.66 48.9423 3660.97 43.7129 3702.13 41.4334C3715.66 29.0972 3742.74 19.1076 3783.36 11.4646C3823.97 3.82152 3870 0 3921.45 0C3984.81 0 4038.57 5.46545 4082.71 16.3963C4126.86 27.3272 4148.92 40.6342 4148.9 56.3172C4186.27 57.3899 4217.28 61.3804 4241.93 68.2886C4266.58 75.1969 4278.89 83.2743 4278.87 92.5211C4278.87 102.578 4264.66 111.127 4236.24 118.17C4207.82 125.212 4173.29 128.73 4132.65 128.725H3742.74Z" fill="#0A0D21" fill-opacity="0.43"/>
<path d="M866.446 965.438C817.165 965.438 775.066 961.214 740.147 952.766C705.228 944.319 687.758 933.994 687.736 921.792C687.736 911.333 700.462 902.014 725.915 893.834C751.368 885.655 784.673 880.425 825.83 878.146C839.369 865.81 866.446 855.82 907.062 848.177C947.678 840.534 993.709 836.713 1045.16 836.713C1108.52 836.713 1162.27 842.178 1206.42 853.109C1250.56 864.04 1272.63 877.347 1272.6 893.03C1309.97 894.102 1340.98 898.093 1365.63 905.001C1390.28 911.909 1402.6 919.987 1402.58 929.234C1402.58 939.29 1388.37 947.84 1359.94 954.882C1331.52 961.924 1297 965.443 1256.36 965.438H866.446Z" fill="#0A0D21" fill-opacity="0.43"/>
<path d="M2036.11 494.575C1997.8 494.575 1965.08 491.24 1937.94 484.571C1910.8 477.902 1897.22 469.751 1897.2 460.118C1897.2 451.861 1907.09 444.504 1926.88 438.046C1946.66 431.589 1972.55 427.46 2004.54 425.661C2015.06 415.921 2036.11 408.035 2067.67 402.001C2099.24 395.967 2135.02 392.95 2175.01 392.95C2224.26 392.95 2266.04 397.265 2300.35 405.894C2334.66 414.524 2351.81 425.03 2351.79 437.411C2380.84 438.258 2404.94 441.408 2424.1 446.862C2443.26 452.316 2452.83 458.693 2452.81 465.993C2452.81 473.932 2441.77 480.682 2419.68 486.242C2397.59 491.801 2370.75 494.579 2339.17 494.575H2036.11Z" fill="#0A0D21" fill-opacity="0.43"/>
<path d="M1162.04 331.975C1123.73 331.975 1091.01 328.64 1063.87 321.971C1036.73 315.302 1023.15 307.151 1023.13 297.518C1023.13 289.261 1033.03 281.904 1052.81 275.446C1072.59 268.989 1098.48 264.86 1130.47 263.061C1140.99 253.321 1162.04 245.435 1193.61 239.401C1225.17 233.367 1260.95 230.35 1300.94 230.35C1350.19 230.35 1391.97 234.665 1426.28 243.294C1460.59 251.924 1477.74 262.43 1477.72 274.811C1506.77 275.658 1530.87 278.808 1550.03 284.262C1569.19 289.716 1578.76 296.093 1578.74 303.393C1578.74 311.332 1567.7 318.082 1545.61 323.642C1523.52 329.201 1496.68 331.979 1465.1 331.975H1162.04Z" fill="#0A0D21" fill-opacity="0.43"/>
<path d="M1375.47 101.625C1337.17 101.625 1304.45 98.2904 1277.31 91.6213C1250.17 84.9521 1236.59 76.801 1236.57 67.1678C1236.57 58.9107 1246.46 51.5535 1266.24 45.0961C1286.03 38.6387 1311.91 34.5102 1343.9 32.7105C1354.43 22.9715 1375.47 15.085 1407.04 9.05098C1438.61 3.01699 1474.39 0 1514.37 0C1563.62 0 1605.4 4.31483 1639.71 12.9445C1674.03 21.5741 1691.18 32.0796 1691.16 44.4609C1720.2 45.3078 1744.3 48.4582 1763.46 53.9121C1782.62 59.3659 1792.2 65.7429 1792.18 73.043C1792.18 80.9824 1781.13 87.732 1759.04 93.2917C1736.96 98.8515 1710.12 101.629 1678.53 101.625H1375.47Z" fill="#0A0D21" fill-opacity="0.43"/>
<path d="M2601.88 101.625C2563.58 101.625 2530.85 98.2904 2503.71 91.6213C2476.57 84.9521 2462.99 76.801 2462.98 67.1678C2462.98 58.9107 2472.87 51.5535 2492.65 45.0961C2512.43 38.6387 2538.32 34.5102 2570.31 32.7105C2580.83 22.9715 2601.88 15.085 2633.45 9.05098C2665.02 3.01699 2700.79 0 2740.78 0C2790.03 0 2831.81 4.31483 2866.12 12.9445C2900.43 21.5741 2917.58 32.0796 2917.57 44.4609C2946.61 45.3078 2970.71 48.4582 2989.87 53.9121C3009.03 59.3659 3018.6 65.7429 3018.59 73.043C3018.59 80.9824 3007.54 87.732 2985.45 93.2917C2963.36 98.8515 2936.52 101.629 2904.94 101.625H2601.88Z" fill="#0A0D21" fill-opacity="0.43"/>
<path d="M1571.97 1084C1533.66 1084 1500.94 1080.67 1473.8 1074C1446.66 1067.33 1433.08 1059.18 1433.07 1049.54C1433.07 1041.29 1442.96 1033.93 1462.74 1027.47C1482.52 1021.01 1508.41 1016.89 1540.4 1015.09C1550.92 1005.35 1571.97 997.46 1603.54 991.426C1635.11 985.392 1670.88 982.375 1710.87 982.375C1760.12 982.375 1801.9 986.69 1836.21 995.32C1870.52 1003.95 1887.67 1014.45 1887.66 1026.84C1916.7 1027.68 1940.8 1030.83 1959.96 1036.29C1979.12 1041.74 1988.69 1048.12 1988.68 1055.42C1988.68 1063.36 1977.63 1070.11 1955.54 1075.67C1933.45 1081.23 1906.61 1084 1875.03 1084H1571.97Z" fill="#0A0D21" fill-opacity="0.43"/>
<path d="M4272.09 1084C4233.79 1084 4201.07 1080.67 4173.93 1074C4146.79 1067.33 4133.21 1059.18 4133.19 1049.54C4133.19 1041.29 4143.08 1033.93 4162.87 1027.47C4182.65 1021.01 4208.54 1016.89 4240.53 1015.09C4251.05 1005.35 4272.1 997.46 4303.66 991.426C4335.23 985.392 4371.01 982.375 4411 982.375C4460.24 982.375 4502.02 986.69 4536.34 995.32C4570.65 1003.95 4587.8 1014.45 4587.78 1026.84C4616.83 1027.68 4640.93 1030.83 4660.09 1036.29C4679.25 1041.74 4688.82 1048.12 4688.8 1055.42C4688.8 1063.36 4677.76 1070.11 4655.67 1075.67C4633.58 1081.23 4606.74 1084 4575.15 1084H4272.09Z" fill="#0A0D21" fill-opacity="0.43"/>
<path d="M3970.58 860.425C3932.27 860.425 3899.55 857.09 3872.41 850.421C3845.27 843.752 3831.69 835.601 3831.67 825.968C3831.67 817.711 3841.56 810.354 3861.35 803.896C3881.13 797.439 3907.02 793.31 3939.01 791.511C3949.53 781.771 3970.58 773.885 4002.14 767.851C4033.71 761.817 4069.49 758.8 4109.48 758.8C4158.72 758.8 4200.5 763.115 4234.82 771.744C4269.13 780.374 4286.28 790.88 4286.26 803.261C4315.31 804.108 4339.41 807.258 4358.57 812.712C4377.73 818.166 4387.3 824.543 4387.28 831.843C4387.28 839.782 4376.24 846.532 4354.15 852.092C4332.06 857.651 4305.22 860.429 4273.63 860.425H3970.58Z" fill="#0A0D21" fill-opacity="0.43"/>
<path d="M2204.65 965.438C2155.37 965.438 2113.27 961.214 2078.35 952.766C2043.43 944.319 2025.96 933.994 2025.94 921.792C2025.94 911.333 2038.67 902.014 2064.12 893.834C2089.57 885.655 2122.88 880.425 2164.04 878.146C2177.57 865.81 2204.65 855.82 2245.27 848.177C2285.88 840.534 2331.91 836.713 2383.36 836.713C2446.72 836.713 2500.48 842.178 2544.62 853.109C2588.77 864.04 2610.83 877.347 2610.81 893.03C2648.18 894.102 2679.19 898.093 2703.84 905.001C2728.49 911.909 2740.8 919.987 2740.78 929.234C2740.78 939.29 2726.57 947.84 2698.15 954.882C2669.73 961.924 2635.2 965.443 2594.56 965.438H2204.65Z" fill="#0A0D21" fill-opacity="0.43"/>
<path d="M3580.12 308.263C3503.75 308.263 3438.51 301.705 3384.39 288.589C3330.27 275.473 3303.2 259.442 3303.17 240.497C3303.17 224.258 3322.89 209.789 3362.33 197.089C3401.78 184.389 3453.39 176.27 3517.18 172.731C3538.16 153.577 3580.12 138.067 3643.07 126.2C3706.01 114.333 3777.35 108.4 3857.08 108.4C3955.28 108.4 4038.58 116.886 4107 133.857C4175.42 150.829 4209.61 171.49 4209.57 195.84C4267.48 197.505 4315.54 203.701 4353.74 214.427C4391.95 225.153 4411.03 237.694 4411 252.051C4411 267.665 4388.97 280.94 4344.93 291.874C4300.89 302.808 4247.37 308.271 4184.4 308.263H3580.12Z" fill="#0A0D21" fill-opacity="0.43"/>
<path d="M276.958 308.263C200.585 308.263 135.34 301.705 81.2242 288.589C27.1083 275.473 0.0335706 259.442 0 240.497C0 224.258 19.7227 209.789 59.1682 197.089C98.6138 184.389 150.229 176.27 214.013 172.731C234.994 153.577 276.958 138.067 339.903 126.2C402.848 114.333 474.185 108.4 553.916 108.4C652.11 108.4 735.415 116.886 803.832 133.857C872.249 150.829 906.441 171.49 906.407 195.84C964.317 197.505 1012.37 203.701 1050.58 214.427C1088.78 225.153 1107.86 237.694 1107.83 252.051C1107.83 267.665 1085.81 280.94 1041.76 291.874C997.719 302.808 944.208 308.271 881.229 308.263H276.958Z" fill="#0A0D21" fill-opacity="0.43"/>
<path d="M2567.15 660.563C2490.78 660.563 2425.54 654.005 2371.42 640.889C2317.3 627.773 2290.23 611.742 2290.2 592.797C2290.2 576.558 2309.92 562.089 2349.36 549.389C2388.81 536.689 2440.42 528.57 2504.21 525.031C2525.19 505.877 2567.15 490.367 2630.1 478.5C2693.04 466.633 2764.38 460.7 2844.11 460.7C2942.3 460.7 3025.61 469.186 3094.03 486.157C3162.44 503.129 3196.64 523.79 3196.6 548.14C3254.51 549.805 3302.57 556.001 3340.77 566.727C3378.97 577.453 3398.06 589.994 3398.03 604.351C3398.03 619.965 3376 633.24 3331.96 644.174C3287.91 655.108 3234.4 660.571 3171.42 660.563H2567.15Z" fill="#0A0D21" fill-opacity="0.43"/>
<path d="M4027.32 650.4C3950.95 650.4 3885.7 643.842 3831.59 630.726C3777.47 617.61 3750.4 601.579 3750.36 582.634C3750.36 566.395 3770.09 551.926 3809.53 539.226C3848.98 526.527 3900.59 518.408 3964.38 514.868C3985.36 495.715 4027.32 480.205 4090.27 468.338C4153.21 456.471 4224.55 450.538 4304.28 450.538C4402.47 450.538 4485.78 459.023 4554.2 475.995C4622.61 492.967 4656.8 513.627 4656.77 537.977C4714.68 539.643 4762.74 545.839 4800.94 556.565C4839.14 567.291 4858.23 579.832 4858.2 594.189C4858.2 609.803 4836.17 623.077 4792.13 634.011C4748.08 644.945 4694.57 650.408 4631.59 650.4H4027.32Z" fill="#0A0D21" fill-opacity="0.43"/>
<path d="M1117.15 657.175C1040.77 657.175 975.53 650.617 921.414 637.501C867.298 624.385 840.224 608.354 840.19 589.409C840.19 573.17 859.913 558.701 899.358 546.001C938.804 533.302 990.419 525.183 1054.2 521.643C1075.18 502.49 1117.15 486.98 1180.09 475.113C1243.04 463.246 1314.38 457.313 1394.11 457.313C1492.3 457.313 1575.61 465.798 1644.02 482.77C1712.44 499.742 1746.63 520.402 1746.6 544.752C1804.51 546.418 1852.56 552.614 1890.77 563.34C1928.97 574.066 1948.05 586.607 1948.02 600.964C1948.02 616.578 1926 629.852 1881.95 640.786C1837.91 651.72 1784.4 657.183 1721.42 657.175H1117.15Z" fill="#0A0D21" fill-opacity="0.43"/>
<path d="M1855.7 308.263C1779.33 308.263 1714.08 301.705 1659.97 288.589C1605.85 275.473 1578.78 259.442 1578.74 240.497C1578.74 224.258 1598.47 209.789 1637.91 197.089C1677.36 184.389 1728.97 176.27 1792.76 172.731C1813.74 153.577 1855.7 138.067 1918.65 126.2C1981.59 114.333 2052.93 108.4 2132.66 108.4C2230.85 108.4 2314.16 116.886 2382.58 133.857C2450.99 150.829 2485.18 171.49 2485.15 195.84C2543.06 197.505 2591.12 203.701 2629.32 214.427C2667.52 225.153 2686.61 237.694 2686.58 252.051C2686.58 267.665 2664.55 280.94 2620.51 291.874C2576.46 302.808 2522.95 308.271 2459.97 308.263H1855.7Z" fill="#0A0D21" fill-opacity="0.43"/>
<path d="M1716.8 826.55C1667.52 826.55 1625.42 822.326 1590.5 813.879C1555.58 805.431 1538.11 795.106 1538.09 782.904C1538.09 772.445 1550.82 763.126 1576.27 754.947C1601.72 746.767 1635.03 741.538 1676.18 739.258C1689.72 726.922 1716.8 716.933 1757.42 709.29C1798.03 701.647 1844.06 697.825 1895.51 697.825C1958.87 697.825 2012.62 703.29 2056.77 714.221C2100.92 725.152 2122.98 738.459 2122.96 754.142C2160.32 755.215 2191.33 759.205 2215.98 766.114C2240.64 773.022 2252.95 781.099 2252.93 790.346C2252.93 800.403 2238.72 808.952 2210.3 815.995C2181.88 823.037 2147.35 826.555 2106.71 826.55H1716.8Z" fill="#0A0D21" fill-opacity="0.43"/>
<path d="M2767.04 291.325C2717.76 291.325 2675.66 287.101 2640.74 278.654C2605.82 270.206 2588.35 259.881 2588.33 247.679C2588.33 237.22 2601.05 227.901 2626.51 219.722C2651.96 211.542 2685.26 206.313 2726.42 204.033C2739.96 191.697 2767.04 181.708 2807.65 174.065C2848.27 166.422 2894.3 162.6 2945.75 162.6C3009.11 162.6 3062.86 168.065 3107.01 178.996C3151.15 189.927 3173.22 203.234 3173.2 218.917C3210.56 219.99 3241.57 223.98 3266.22 230.889C3290.87 237.797 3303.19 245.874 3303.17 255.121C3303.17 265.178 3288.96 273.727 3260.54 280.77C3232.12 287.812 3197.59 291.33 3156.95 291.325H2767.04Z" fill="#0A0D21" fill-opacity="0.43"/>
<path d="M896.937 128.725C847.656 128.725 805.556 124.501 770.638 116.054C735.719 107.606 718.249 97.2812 718.227 85.0792C718.227 74.6203 730.953 65.3011 756.406 57.1217C781.858 48.9423 815.163 43.7129 856.321 41.4334C869.859 29.0972 896.937 19.1076 937.553 11.4646C978.168 3.82152 1024.2 0 1075.65 0C1139.01 0 1192.76 5.46545 1236.91 16.3963C1281.05 27.3272 1303.12 40.6342 1303.1 56.3172C1340.46 57.3899 1371.47 61.3804 1396.12 68.2886C1420.77 75.1969 1433.09 83.2743 1433.07 92.5211C1433.07 102.578 1418.86 111.127 1390.44 118.17C1362.02 125.212 1327.49 128.73 1286.85 128.725H896.937Z" fill="#0A0D21" fill-opacity="0.43"/>
</g>
<defs>
<filter id="filter0_b_755_9" x="-4" y="-4" width="7712" height="1092" filterUnits="userSpaceOnUse" color-interpolation-filters="sRGB">
<feFlood flood-opacity="0" result="BackgroundImageFix"/>
<feGaussianBlur in="BackgroundImageFix" stdDeviation="2"/>
<feComposite in2="SourceAlpha" operator="in" result="effect1_backgroundBlur_755_9"/>
<feBlend mode="normal" in="SourceGraphic" in2="effect1_backgroundBlur_755_9" result="shape"/>
</filter>
</defs>
</svg>
