<svg width="95" height="28" viewBox="0 0 95 28" fill="none" xmlns="http://www.w3.org/2000/svg">
<path d="M31.2495 8H35.6698L36.9193 9.76707V14.5971L35.6698 15.8193H31.2652L30 14.0522V9.22222L31.2495 8ZM31.2339 13.905L31.8587 14.759H35.17L35.6385 14.2878V9.8996L35.045 9.06024H31.7181L31.2339 9.54618V13.905Z" fill="#306FC7"/>
<path d="M41.8489 8H45.0196L46.2535 9.76707V14.5971L45.004 15.8193H41.8645L40.5994 15.1124V19H39.3498V8H40.5994V8.72155L41.8489 8ZM40.5994 13.905L41.2241 14.759H44.5198L44.9884 14.3025V9.91432L44.3948 9.07497H41.0835L40.5994 9.53146V13.905Z" fill="#306FC7"/>
<path d="M49.9492 8H54.3226L55.6189 9.75234L53.0418 12.2557H49.9492V13.905L50.5583 14.759H53.8696L54.7443 13.9491L55.4315 14.759L54.3382 15.8193H49.9648L48.6996 14.0522V9.22222L49.9492 8ZM49.9492 9.53146V11.1954H52.5732L54.1507 9.63454L53.7446 9.06024H50.449L49.9492 9.53146Z" fill="#306FC7"/>
<path d="M58.0807 8H59.3302V8.70683L60.5954 8H63.7348L65 9.73762V15.8193H63.7348V9.88487L63.1413 9.06024H59.8144L59.3302 9.53146V15.8193H58.0807V8Z" fill="#306FC7"/>
<rect x="0.5" y="0.5" width="94" height="27" stroke="#306FC7"/>
</svg>
